<?xml version="1.0" encoding="iso-8859-1"?>
<!-- Generator: Adobe Illustrator 19.0.0, SVG Export Plug-In . SVG Version: 6.00 Build 0)  -->
<svg version="1.1" id="Layer_1" xmlns="http://www.w3.org/2000/svg" xmlns:xlink="http://www.w3.org/1999/xlink" x="0px" y="0px"
	 viewBox="0 0 512 512" style="enable-background:new 0 0 512 512;" xml:space="preserve">
<g>
	<g>
		<g>
			<path d="M490.667,341.333v-256c0-23.558-19.109-42.667-42.667-42.667H64c-23.558,0-42.667,19.109-42.667,42.667v256
				C9.551,341.333,0,350.885,0,362.667v64c0,23.558,19.109,42.667,42.667,42.667h426.667c23.558,0,42.667-19.109,42.667-42.667v-64
				C512,350.885,502.449,341.333,490.667,341.333z M64,85.333h384v256H320c-5.658,0-11.084,2.248-15.085,6.248l-15.085,15.085
				h-67.66l-15.085-15.085c-4.001-4.001-9.427-6.248-15.085-6.248H64V85.333z M469.333,426.667H42.667V384h140.497l15.085,15.085
				c4.001,4.001,9.427,6.248,15.085,6.248h85.333c5.658,0,11.084-2.248,15.085-6.248L328.837,384h140.497V426.667z"/>
			<path d="M230.251,255.998c4.48,0,8.085-3.627,8.085-8.085v-24.277h32.384v24.277c0,4.459,3.605,8.085,8.085,8.085
				c4.48,0,8.085-3.627,8.085-8.085v-64.747c0-4.459-3.605-8.085-8.085-8.085c-4.48,0-8.085,3.627-8.085,8.085v24.277h-32.384
				v-24.277c0-4.459-3.605-8.085-8.085-8.085s-8.085,3.627-8.085,8.085v64.747C222.165,252.371,225.771,255.998,230.251,255.998z"/>
			<path d="M201.935,201.382c0-14.507-11.797-26.304-26.304-26.304h-18.197c-4.48,0-8.107,3.627-8.107,8.085v64.747
				c0,4.459,3.627,8.085,8.107,8.085c4.459,0,8.085-3.627,8.085-8.085v-20.224h10.112
				C190.138,227.686,201.935,215.889,201.935,201.382z M175.631,211.494h-10.112V191.27h10.112c5.589,0,10.112,4.523,10.112,10.112
				C185.743,206.95,181.22,211.494,175.631,211.494z"/>
			<path d="M319.275,255.996c4.459,0,8.085-3.627,8.085-8.085v-20.224h10.112c14.507,0,26.304-11.797,26.304-26.304
				s-11.797-26.304-26.304-26.304h-18.197c-4.48,0-8.107,3.627-8.107,8.085v64.747C311.168,252.369,314.795,255.996,319.275,255.996
				z M327.36,191.27h10.112c5.589,0,10.112,4.523,10.112,10.112c0,5.568-4.523,10.112-10.112,10.112H327.36V191.27z"/>
		</g>
	</g>
</g>
<g>
</g>
<g>
</g>
<g>
</g>
<g>
</g>
<g>
</g>
<g>
</g>
<g>
</g>
<g>
</g>
<g>
</g>
<g>
</g>
<g>
</g>
<g>
</g>
<g>
</g>
<g>
</g>
<g>
</g>
</svg>
